PathFileType	4	(X/Y/Z)	static.trc
DataRate	CameraRate	NumFrames	NumMarkers	Units	OrigDataRate	OrigDataStartFrame	OrigNumFrames
250.000000	250.000000	4	55	mm	250.000000	566	647
Frame#	Time	C7			RSH			LSH			MAN			T7			LARM			LELB			LFOREARM			LWR			RARM			RELB			RFOREARM			RWR			RASI			LASI			SACR			P1			P2			P3			LTHLP			LTHLD			LTHAP			LTHAD			LLEPI			LPAT			LMEPI			LTIAP			LTIAD			LTILAT			LLMAL			LMMAL			LHEEL			LMFS			LMFL			LP1MT			LTOE			LP5MT			RTHLP			RTHLD			RTHAP			RTHAD			RLEPI			RPAT			RMEPI			RTIAP			RTIAD			RTILAT			RLMAL			RMMAL			RHEEL			RMFS			RMFL			RP1MT			RTOE			RP5MT			
		X1	Y1	Z1	X2	Y2	Z2	X3	Y3	Z3	X4	Y4	Z4	X5	Y5	Z5	X6	Y6	Z6	X7	Y7	Z7	X8	Y8	Z8	X9	Y9	Z9	X10	Y10	Z10	X11	Y11	Z11	X12	Y12	Z12	X13	Y13	Z13	X14	Y14	Z14	X15	Y15	Z15	X16	Y16	Z16	X17	Y17	Z17	X18	Y18	Z18	X19	Y19	Z19	X20	Y20	Z20	X21	Y21	Z21	X22	Y22	Z22	X23	Y23	Z23	X24	Y24	Z24	X25	Y25	Z25	X26	Y26	Z26	X27	Y27	Z27	X28	Y28	Z28	X29	Y29	Z29	X30	Y30	Z30	X31	Y31	Z31	X32	Y32	Z32	X33	Y33	Z33	X34	Y34	Z34	X35	Y35	Z35	X36	Y36	Z36	X37	Y37	Z37	X38	Y38	Z38	X39	Y39	Z39	X40	Y40	Z40	X41	Y41	Z41	X42	Y42	Z42	X43	Y43	Z43	X44	Y44	Z44	X45	Y45	Z45	X46	Y46	Z46	X47	Y47	Z47	X48	Y48	Z48	X49	Y49	Z49	X50	Y50	Z50	X51	Y51	Z51	X52	Y52	Z52	X53	Y53	Z53	X54	Y54	Z54	X55	Y55	Z55	

567	2.264	-695.9776611328127	1569.266235351563	312.2031250000001	-650.4481201171877	1558.546264648438	476.094421386719	-687.6390380859377	1554.319702148438	156.1389465332032	-539.1777343750002	1483.8095703125	308.3256835937501	-747.7296142578127	1373.92529296875	319.1293945312501	-708.7281494140627	1376.206665039063	39.69612503051759	-728.1997680664065	1251.544677734375	-17.19612121582032	-681.776062011719	1143.406005859375	-103.6119537353516	-661.0247802734377	1019.317565917969	-164.7418365478516	-669.2932128906252	1388.7138671875	587.087585449219	-699.0803833007815	1263.850341796875	651.2092895507815	-656.8085937500002	1153.616088867188	734.8601074218752	-638.8701171875002	1031.234130859375	797.7631225585942	-533.0242919921877	1086.696044921875	400.992126464844	-559.2402954101565	1090.527709960938	185.4707641601563	-730.2338867187502	1134.306274414063	319.7797851562501	-751.2349853515627	1108.414184570313	268.4801635742189	-736.3220825195315	1103.859130859375	373.6795349121095	-775.3134765625005	1050.275512695313	322.2612304687501	-668.4573974609377	798.2755737304692	107.1680068969727	-663.7351684570315	684.2612915039065	113.2954177856446	-535.0710449218752	784.023559570313	172.8946380615235	-555.0393066406252	675.0808715820315	179.6135711669922	-657.382507324219	558.9429931640627	123.3911285400391	-577.4133911132815	560.4927978515627	184.7273559570313	-657.705749511719	541.5279541015627	249.233856201172	-642.4251098632815	381.3092346191407	189.0242004394532	-659.189880371094	243.5014953613282	182.0045471191407	-693.8391113281252	320.8922119140626	108.7877426147462	-701.7505493164065	102.5533905029297	121.8118591308594	-680.6516723632815	112.7650604248047	214.6723175048829	-765.6101074218752	60.95610427856448	166.0970306396485	-600.6358642578127	94.64491271972659	169.7206726074219	-628.6919555664065	69.70110321044925	107.1913375854493	-553.4338378906252	46.37285232543947	202.7310485839845	-498.0006408691409	58.73347473144534	164.4793701171876	-576.742858886719	36.04384613037111	78.8417892456055	-632.4025878906252	825.4159545898442	514.9050903320315	-635.4067382812502	711.6820068359377	509.7950439453127	-528.8258056640627	782.8153686523442	424.2522583007815	-549.6933593750002	686.4591064453127	420.7014770507815	-652.681579589844	559.8594360351565	490.2066955566409	-584.6835937500002	551.0064086914065	426.8310852050784	-685.6255493164065	544.1240844726565	367.1835021972657	-658.377624511719	344.0696716308595	420.1543579101565	-673.059265136719	218.0289001464845	414.4500427246096	-693.7779541015627	338.557342529297	507.0190429687502	-695.1258544921877	102.966163635254	482.0932922363284	-684.3193969726565	112.8805084228516	387.8780212402346	-765.390563964844	59.4247856140137	441.455017089844	-592.3801269531252	97.98654174804693	432.1957092285159	-629.2309570312502	69.67009735107425	491.1492309570315	-554.259460449219	49.02713775634768	388.7276000976565	-493.9460449218752	58.848503112793	426.2207946777346	-569.8125000000002	40.67851638793947	515.9439086914065	
568	2.268	-696.011413574219	1569.291015625001	312.2354736328126	-650.4492797851565	1558.517944335938	476.1011047363284	-687.6105957031252	1554.343994140626	156.0606536865235	-539.2073974609377	1483.80126953125	308.273162841797	-747.739929199219	1373.92333984375	319.255828857422	-708.8218383789065	1376.196533203125	39.71495056152345	-728.3231201171877	1251.44140625	-16.90882110595704	-681.9671020507815	1143.403686523438	-103.5076522827149	-661.2166748046877	1019.315734863282	-164.7600860595704	-669.271423339844	1388.703002929688	587.1083984375002	-699.1251220703127	1263.85791015625	651.2404785156252	-656.8729248046877	1153.570678710938	734.8523559570315	-638.935974121094	1031.192504882813	797.781616210938	-533.0657348632815	1086.685791015625	401.0160217285159	-559.2645263671877	1090.53955078125	185.4883270263672	-730.2829589843752	1134.280639648438	319.7694396972657	-751.234313964844	1108.457763671875	268.5005187988282	-736.3454589843752	1103.875732421875	373.726776123047	-775.3467407226567	1050.332885742188	322.3007202148439	-668.5161132812502	798.2766723632817	107.2099304199219	-663.753356933594	684.2220458984377	113.3017044067383	-535.164001464844	784.0590209960942	173.0722961425782	-555.1381835937502	675.106872558594	179.6864166259766	-657.495056152344	558.819030761719	123.306739807129	-577.5509033203127	560.5080566406252	184.7278442382813	-657.8084106445315	541.5341796875002	249.284637451172	-642.436462402344	381.3049316406251	189.0390777587891	-659.1053466796877	243.5047912597657	181.8627929687501	-693.9466552734377	320.8744201660157	108.8034591674805	-701.744812011719	102.5767898559571	121.789291381836	-680.6993408203127	112.7313690185547	214.5995635986329	-765.599548339844	60.91583633422854	166.0600585937501	-600.638366699219	94.66578674316409	169.7128906250001	-628.6634521484377	69.77840423583987	107.1804199218751	-553.3103637695315	46.36579513549806	202.8437500000001	-498.011169433594	58.72232818603518	164.3869628906251	-576.7315063476565	36.07955551147462	78.75524902343753	-632.4072875976565	825.404418945313	514.923522949219	-635.485290527344	711.7105102539065	509.7963867187502	-528.8384399414065	782.7849731445317	424.2318115234377	-549.7600708007815	686.4918212890627	420.7929687500002	-652.7424926757815	559.813171386719	490.0635681152346	-584.7326660156252	551.0135498046877	426.8802185058596	-685.599548339844	544.1431884765627	367.1666259765626	-658.4104003906252	344.064666748047	420.1402587890627	-673.0591430664065	218.0545806884767	414.4881896972659	-693.8527832031252	338.5474243164064	507.0218200683596	-694.9522705078127	103.0429000854493	482.2428894042971	-684.2680664062502	112.8863067626954	387.894226074219	-765.3662719726565	59.23730468750003	441.2749328613284	-592.4129028320315	97.96689605712896	432.0542602539065	-629.2890625000002	69.64223480224612	491.046325683594	-554.2734985351565	49.13358688354495	388.7497558593752	-493.942321777344	58.91524887084964	426.2070617675784	-569.8586425781252	40.65955734252931	515.9119873046877	
569	2.272	-695.9798583984377	1569.203491210938	312.2617797851564	-650.5296020507815	1558.511230468751	476.0847473144534	-687.7109985351565	1554.357666015626	156.1246643066407	-539.2485351562502	1483.814208984375	308.396209716797	-747.837097167969	1373.9658203125	319.2357177734376	-708.9320068359377	1376.176025390625	39.77053833007814	-728.382019042969	1251.51416015625	-17.04145431518555	-682.1113281250002	1143.391723632813	-103.5202636718751	-661.397644042969	1019.304321289063	-164.7355651855469	-669.3867797851565	1388.65185546875	587.0590820312502	-699.1504516601565	1263.808959960938	651.232849121094	-657.0894775390627	1153.534301757813	734.7139892578127	-639.080261230469	1031.151245117188	797.6779174804692	-533.0905761718752	1086.690551757813	401.0839843750002	-559.310974121094	1090.547119140625	185.5799255371094	-730.3745727539065	1134.358154296875	319.7392883300782	-751.3304443359377	1108.47998046875	268.554412841797	-736.4367675781252	1104.044311523438	373.6574096679689	-775.387573242188	1050.330078125	322.3069152832032	-668.568054199219	798.2617187500005	107.2259902954102	-663.8308105468752	684.2619628906252	113.2927856445313	-535.2243652343752	784.0342407226567	173.1101074218751	-555.2080688476565	675.0809326171877	179.6041717529297	-657.636169433594	558.7654418945315	123.4447326660157	-577.6610107421877	560.4998168945315	184.7732086181641	-657.8648681640627	541.5141601562502	249.2195434570314	-642.503601074219	381.3226013183595	188.9818267822266	-659.1294555664065	243.4852600097657	181.8326263427735	-693.9443969726565	320.8812561035157	108.755973815918	-701.7720336914065	102.5411605834962	121.8170471191407	-680.6330566406252	112.7748565673829	214.7228088378907	-765.603454589844	60.893424987793	166.0456695556641	-600.5520629882815	94.66983795166018	169.6037750244141	-628.5853271484377	69.74836730957034	107.0619430541993	-553.4060668945315	46.35966110229494	202.7598114013673	-497.9928894042971	58.75791168212893	164.4431915283204	-576.7094726562502	36.08935546875001	78.77736663818362	-632.4517822265627	825.4103393554692	514.9424438476565	-635.4737548828127	711.6880493164065	509.878601074219	-528.926452636719	782.8628540039067	424.383239746094	-549.8076782226565	686.4776611328127	420.8252258300784	-652.7365722656252	559.8689575195315	490.263610839844	-584.753112792969	551.014343261719	426.8300476074221	-685.687438964844	544.1687011718752	367.174774169922	-658.4299926757815	344.0763244628907	420.2008361816409	-673.1273193359377	218.0819702148439	414.5704345703127	-693.9097900390627	338.5285034179689	507.0403442382815	-694.8638305664065	103.1572036743165	482.3503112792971	-684.0949707031252	112.8995208740235	387.759704589844	-765.4180908203127	59.24639511108401	441.3393859863284	-592.3505859375002	97.91920471191412	431.9824523925784	-629.2493896484377	69.63910675048831	491.137145996094	-554.2467041015627	49.04998397827151	388.7649536132815	-493.9505615234377	58.89757156372073	426.1904602050784	-569.8444824218752	40.66339111328126	515.9082031250002	
570	2.276	-696.0347900390627	1569.267822265626	312.2349548339845	-650.5169677734377	1558.508666992188	476.1789550781252	-687.718200683594	1554.375488281251	156.0814056396485	-539.274108886719	1483.782836914063	308.3770141601564	-747.8572387695315	1373.947387695313	319.311004638672	-709.0237426757815	1376.18310546875	39.76375579833986	-728.5234375000002	1251.476196289063	-16.91315460205079	-682.249450683594	1143.37939453125	-103.503890991211	-661.5921630859377	1019.28173828125	-164.7431030273438	-669.3714599609377	1388.656127929688	587.080749511719	-699.2093505859377	1263.810424804688	651.2385253906252	-657.1294555664065	1153.524658203125	734.6828613281252	-639.1375732421877	1031.120483398438	797.6978149414067	-533.1217041015627	1086.732421875	401.1274414062502	-559.3519287109377	1090.5390625	185.6034240722657	-730.3895263671877	1134.329467773438	319.7864379882814	-751.3510742187502	1108.461303710938	268.5091247558595	-741.0523071289065	1104.53857421875	374.4689025878907	-775.4442749023442	1050.297485351563	322.2524719238282	-668.5745849609377	798.2861328125005	107.2077255249024	-663.9099121093752	684.2554321289065	113.3233337402344	-535.2709960937502	784.0485839843755	173.1701202392579	-555.3223266601565	675.1060180664065	179.742416381836	-657.6265258789065	558.892272949219	123.3576660156251	-577.7065429687502	560.533386230469	184.8206939697266	-657.9647216796877	541.505554199219	249.2312316894532	-642.6204223632815	381.3691406250001	189.0165252685547	-659.1656494140627	243.5019989013673	181.8137512207032	-694.039733886719	320.8673095703126	108.7732543945313	-701.756530761719	102.5481033325196	121.805046081543	-680.6963500976565	112.7440643310547	214.5849914550782	-765.5747070312502	60.92274475097659	166.0542144775391	-600.5816650390627	94.65777587890628	169.6432037353516	-628.7127685546877	69.73738861083987	107.1369552612305	-553.362976074219	46.34175491333009	202.8114776611329	-497.9857177734377	58.76995849609378	164.368148803711	-576.6535644531252	36.0908660888672	78.74440765380862	-632.479919433594	825.4038085937505	514.943786621094	-635.6101074218752	711.691833496094	509.7355957031252	-528.9035644531252	782.7911987304692	424.3024902343752	-549.8079223632815	686.4696044921877	420.811462402344	-652.7935791015627	559.8760986328127	490.1764831542971	-584.794860839844	551.0256347656252	426.855895996094	-685.692565917969	544.1433715820315	367.2036437988282	-658.4251708984377	344.064666748047	420.2279357910159	-673.1260375976565	218.0822296142579	414.5844421386721	-693.8758544921877	338.5541992187501	507.0791320800784	-695.1424560546877	103.0208206176758	482.0637512207034	-684.369567871094	112.8357849121094	387.9997558593752	-765.3835449218752	59.2424011230469	441.321228027344	-592.3818359375002	97.94733428955084	432.1707153320315	-629.2715454101565	69.6110534667969	491.0473632812502	-554.303405761719	49.0947074890137	388.7872009277346	-493.9068603515627	58.89235305786136	426.197204589844	-569.8494262695315	40.65521621704103	515.8965454101565	
